<svg xmlns="http://www.w3.org/2000/svg"  viewBox="0 0 48 48" width="48px" height="48px"><path d="M 14.042969 4.9960938 C 12.032866 4.9111574 10.054749 5.7441511 8.671875 7.2890625 C 5.4049493 10.936957 3.9960938 16.899161 3.9960938 24 C 3.9960938 31.100839 5.4052221 37.064153 8.671875 40.712891 C 10.252489 42.479981 12.610083 43.313403 14.904297 42.912109 L 14.978516 42.898438 L 16.072266 42.589844 C 18.572307 41.994053 20.229383 39.591747 19.972656 37.037109 L 19.970703 37.015625 L 19.652344 34.533203 L 19.652344 34.53125 C 19.433814 32.34784 17.86855 30.520275 15.744141 30.023438 L 15.867188 30.058594 L 13.785156 29.380859 L 13.722656 29.365234 C 13.646556 29.347444 13.558838 29.279984 13.523438 29.220703 L 13.521484 29.21875 L 13.519531 29.216797 C 13.596448 29.344588 13.275129 28.376879 13.164062 27.335938 C 13.052997 26.294995 12.998047 25.051659 12.998047 24 C 12.998047 22.948114 13.051177 21.704764 13.162109 20.664062 C 13.273046 19.623362 13.597858 18.655362 13.519531 18.785156 L 13.521484 18.783203 L 13.523438 18.779297 C 13.558468 18.720627 13.649657 18.653217 13.720703 18.636719 L 13.785156 18.621094 L 15.867188 17.943359 L 15.744141 17.978516 C 17.86855 17.481678 19.433768 15.652203 19.652344 13.46875 L 19.970703 10.984375 L 19.972656 10.964844 C 20.230597 8.4093591 18.57251 6.0076093 16.072266 5.4121094 L 14.978516 5.1015625 L 14.904297 5.0898438 C 14.617453 5.0396703 14.330126 5.0082275 14.042969 4.9960938 z M 13.892578 7.9980469 C 14.049768 8.004195 14.206545 8.0205095 14.363281 8.046875 L 15.347656 8.3222656 L 15.376953 8.3300781 C 16.386708 8.5705782 17.098204 9.5755894 16.988281 10.664062 L 16.667969 13.148438 L 16.666016 13.169922 C 16.571886 14.113643 15.911531 14.85762 15.060547 15.056641 L 14.998047 15.070312 L 12.917969 15.748047 L 13.042969 15.714844 C 12.160346 15.919804 11.414412 16.464243 10.951172 17.236328 C 10.951172 17.236328 10.949219 17.238281 10.949219 17.238281 C 10.350252 18.232178 10.306151 19.159346 10.179688 20.345703 C 10.053123 21.533003 9.9980469 22.850886 9.9980469 24 C 9.9980469 25.149341 10.053003 26.46699 10.179688 27.654297 C 10.30637 28.841604 10.351395 29.769976 10.949219 30.763672 C 11.411991 31.536428 12.160521 32.081232 13.041016 32.287109 L 12.917969 32.251953 L 14.998047 32.929688 L 15.060547 32.945312 C 15.911531 33.144334 16.571885 33.88831 16.666016 34.832031 L 16.667969 34.853516 L 16.988281 37.337891 C 17.097555 38.425253 16.384912 39.429713 15.376953 39.669922 L 15.347656 39.677734 L 14.363281 39.955078 C 13.108871 40.166105 11.813882 39.725419 10.908203 38.712891 L 10.908203 38.710938 C 8.4809032 35.999704 6.9960938 30.681161 6.9960938 24 C 6.9960938 17.318839 8.481129 11.999168 10.908203 9.2890625 C 11.700835 8.4035542 12.792252 7.9550101 13.892578 7.9980469 z M 33.001953 12 C 26.392296 12 21.001953 17.389423 21.001953 23.998047 C 21.001953 25.861547 21.491521 27.599785 22.251953 29.173828 L 21.080078 33.375 C 20.667277 34.852758 22.149195 36.334676 23.626953 35.921875 L 27.830078 34.75 C 29.4034 35.509204 31.139837 35.998047 33.001953 35.998047 C 39.61161 35.998047 45.001953 30.608624 45.001953 24 C 45.000853 17.390483 39.61075 12 33.001953 12 z M 33.001953 15 C 37.989156 15 42.001093 19.011517 42.001953 24 C 42.001953 28.987376 37.990296 32.998047 33.001953 32.998047 C 31.410151 32.998047 29.928379 32.58632 28.630859 31.863281 A 1.50015 1.50015 0 0 0 27.498047 31.728516 L 24.414062 32.587891 L 25.275391 29.505859 A 1.50015 1.50015 0 0 0 25.140625 28.373047 C 24.416938 27.075905 24.001953 25.59045 24.001953 23.998047 C 24.001953 19.010671 28.01361 15 33.001953 15 z M 28.5 20.001953 A 1.50015 1.50015 0 1 0 28.5 23.001953 L 37.5 23.001953 A 1.50015 1.50015 0 1 0 37.5 20.001953 L 28.5 20.001953 z M 28.5 25.001953 A 1.50015 1.50015 0 1 0 28.5 28.001953 L 33.5 28.001953 A 1.50015 1.50015 0 1 0 33.5 25.001953 L 28.5 25.001953 z"/></svg>