<svg xmlns="http://www.w3.org/2000/svg"  viewBox="0 0 48 48" width="48px" height="48px" baseProfile="basic"><circle cx="24" cy="26" r="20"/><circle cx="24" cy="24" r="19" fill="#fff"/><path d="M24,44C12.972,44,4,35.028,4,24S12.972,4,24,4s20,8.972,20,20S35.028,44,24,44z M24,6C14.075,6,6,14.075,6,24	s8.075,18,18,18s18-8.075,18-18S33.925,6,24,6z"/><circle cx="25" cy="17" r="3"/><path d="M27.728,32.514c-0.15-0.532-0.705-0.841-1.234-0.689L25.521,32.1l1.391-8.48c0.057-0.346-0.071-0.695-0.337-0.922	c-0.266-0.228-0.632-0.3-0.963-0.189l-5.716,1.891c-0.524,0.173-0.809,0.739-0.635,1.263c0.173,0.524,0.74,0.81,1.263,0.635	l4.147-1.372l-1.378,8.403c-0.055,0.338,0.066,0.68,0.321,0.908c0.186,0.166,0.423,0.254,0.666,0.254	c0.091,0,0.183-0.012,0.272-0.038l2.487-0.705C27.57,33.598,27.879,33.045,27.728,32.514z"/><path d="M22.392,24.537l-1.184,8.226c-0.214,1.247,0.926,2.301,2.152,1.991l1.711-0.447l0.792-10.85L22.392,24.537z"/></svg>